<svg width="48" height="48" viewBox="0 0 48 48" fill="none" xmlns="http://www.w3.org/2000/svg">
<path opacity="0.3" d="M24.0935 13.3337C23.1861 14.9025 22.6667 16.7239 22.6667 18.6666C22.6667 24.5264 27.3919 29.2827 33.2399 29.3329C31.3957 32.5213 27.9484 34.6666 24 34.6666C18.109 34.6666 13.3334 29.891 13.3334 23.9999C13.3334 18.1089 18.109 13.3333 24 13.3333C24.0312 13.3333 24.0624 13.3334 24.0935 13.3337Z" fill="#242938"/>
<path d="M24.0935 13.3337C23.1861 14.9025 22.6667 16.7239 22.6667 18.6666C22.6667 24.5264 27.3919 29.2827 33.2399 29.3329C31.3957 32.5213 27.9484 34.6666 24 34.6666C18.109 34.6666 13.3334 29.891 13.3334 23.9999C13.3334 18.1089 18.109 13.3333 24 13.3333C24.0312 13.3333 24.0624 13.3334 24.0935 13.3337Z" fill="#242938"/>
</svg>
